<svg width="153" height="50" viewBox="0 0 153 50" fill="none" xmlns="http://www.w3.org/2000/svg">
<path d="M37.5411 17.6568H19.7194V22.9373H32.3431C31.7243 30.363 25.5362 33.4983 19.7194 33.4983C12.2524 33.4983 5.77555 27.6402 5.77555 19.4307C5.77555 11.4275 11.9636 5.28062 19.7194 5.28062C25.7012 5.28062 29.249 9.11724 29.249 9.11724L32.9619 5.28062C32.9619 5.28062 28.2177 0.00012207 19.5544 0.00012207C8.53956 0.00012207 0 9.32351 0 19.3482C0 29.2079 8.04451 38.8201 19.8431 38.8201C30.2391 38.8201 37.8298 31.6831 37.8298 21.1634C37.8298 18.9357 37.5411 17.6568 37.5411 17.6568Z" fill="#4285F4"/>
<path d="M52.1042 13.8201C44.8023 13.8201 39.563 19.5544 39.563 26.1963C39.563 32.9619 44.6373 38.7787 52.1867 38.7787C59.0349 38.7787 64.6042 33.5395 64.6042 26.3613C64.6454 18.0693 58.1273 13.8201 52.1042 13.8201ZM52.1867 18.7293C55.7758 18.7293 59.1999 21.6171 59.1999 26.3201C59.1999 30.8993 55.8171 33.9108 52.1867 33.9108C48.1851 33.9108 45.0498 30.7342 45.0498 26.3201C45.0498 21.9472 48.1439 18.7293 52.1867 18.7293Z" fill="#EA4335"/>
<path d="M79.4134 13.8201C72.1114 13.8201 66.8722 19.5544 66.8722 26.1963C66.8722 32.9619 71.9464 38.7787 79.4959 38.7787C86.344 38.7787 91.9133 33.5395 91.9133 26.3613C91.9133 18.0693 85.3952 13.8201 79.4134 13.8201ZM79.4959 18.7293C83.085 18.7293 86.5091 21.6171 86.5091 26.3201C86.5091 30.8993 83.1262 33.9108 79.4959 33.9108C75.4943 33.9108 72.359 30.7342 72.359 26.3201C72.3177 21.9472 75.453 18.7293 79.4959 18.7293Z" fill="#FBBC05"/>
<path d="M106.147 13.8201C99.4226 13.8201 94.1833 19.6782 94.1833 26.2788C94.1833 33.787 100.289 38.7787 106.064 38.7787C109.612 38.7787 111.51 37.3761 112.913 35.726V38.2012C112.913 42.4916 110.314 45.0906 106.353 45.0906C102.558 45.0906 100.619 42.2441 99.9589 40.6352L95.1734 42.6566C96.8648 46.2457 100.289 49.9998 106.394 49.9998C113.078 49.9998 118.152 45.7919 118.152 37.0048V14.5627H112.913V16.6667C111.304 14.9752 109.076 13.8201 106.147 13.8201ZM106.642 18.7293C109.942 18.7293 113.325 21.5346 113.325 26.3201C113.325 31.188 109.942 33.8695 106.601 33.8695C103.012 33.8695 99.7114 30.9818 99.7114 26.3613C99.6701 21.5759 103.135 18.7293 106.642 18.7293Z" fill="#4285F4"/>
<path d="M141.377 13.8201C135.065 13.8201 129.744 18.8531 129.744 26.2788C129.744 34.1583 135.684 38.82 141.996 38.82C147.276 38.82 150.536 35.9322 152.433 33.3332L148.102 30.4455C146.988 32.1781 145.09 33.8695 141.996 33.8695C138.489 33.8695 136.88 31.9306 135.89 30.0742L152.639 23.1435L151.773 21.1221C150.164 17.1204 146.369 13.8201 141.377 13.8201ZM141.625 18.6056C143.894 18.6056 145.544 19.8019 146.245 21.2871L135.065 25.9488C134.57 22.3184 137.994 18.6056 141.625 18.6056Z" fill="#EA4335"/>
<path d="M127.268 1.27905H121.782V38.0775H127.268V1.27905Z" fill="#34A853"/>
</svg>
