<svg width="212" height="46" viewBox="0 0 212 46" fill="none" xmlns="http://www.w3.org/2000/svg">
<path d="M211.491 20.807V17.0893H206.886V11.3186L206.719 11.3741L202.391 12.7058H202.28V17.0893H195.455V14.6479C195.455 13.5381 195.733 12.6503 196.232 12.0955C196.732 11.5406 197.453 11.2077 198.341 11.2077C199.007 11.2077 199.672 11.3741 200.338 11.6516L200.505 11.707V7.82292L200.449 7.76744C199.839 7.54549 198.951 7.43451 197.897 7.43451C196.565 7.43451 195.344 7.71195 194.29 8.32231C193.236 8.87719 192.404 9.7095 191.793 10.7638C191.183 11.818 190.905 13.0388 190.905 14.3705V17.0339H187.687V20.7515H190.905V36.399H195.511V20.7515H202.336V30.7393C202.336 34.8454 204.278 36.8984 208.051 36.8984C208.661 36.8984 209.327 36.8429 209.993 36.6765C210.659 36.51 211.158 36.399 211.436 36.2325L211.491 36.177V32.4594L211.325 32.5704C211.047 32.7368 210.77 32.8478 210.382 32.9588C209.993 33.0698 209.716 33.1252 209.494 33.1252C208.606 33.1252 207.94 32.9033 207.552 32.4039C207.163 31.9045 206.941 31.0722 206.941 29.907V20.807H211.491ZM177.422 33.1252C175.757 33.1252 174.426 32.5704 173.482 31.4606C172.539 30.3509 172.095 28.7972 172.095 26.7997C172.095 24.7466 172.595 23.1375 173.482 22.0277C174.426 20.918 175.702 20.3631 177.366 20.3631C178.976 20.3631 180.252 20.918 181.14 21.9722C182.027 23.0265 182.527 24.6357 182.527 26.6887C182.527 28.7972 182.083 30.4063 181.251 31.4606C180.363 32.6258 179.087 33.1252 177.422 33.1252ZM177.588 16.6454C174.426 16.6454 171.873 17.5887 170.042 19.4198C168.211 21.2509 167.323 23.8033 167.323 27.0216C167.323 30.0734 168.211 32.4594 169.987 34.235C171.762 36.0106 174.148 36.8984 177.089 36.8984C180.196 36.8984 182.638 35.9551 184.469 34.0685C186.3 32.182 187.188 29.685 187.188 26.5777C187.188 23.5259 186.355 21.029 184.635 19.3088C182.971 17.5332 180.64 16.6454 177.588 16.6454ZM159.943 16.6454C157.779 16.6454 156.004 17.2003 154.617 18.3101C153.229 19.4198 152.564 20.8625 152.564 22.5826C152.564 23.4704 152.73 24.3027 153.007 24.9686C153.285 25.6344 153.784 26.2448 154.395 26.7442C155.005 27.2436 155.948 27.7984 157.169 28.2978C158.223 28.7417 159 29.0747 159.499 29.4076C159.999 29.685 160.332 29.9625 160.498 30.2399C160.665 30.5173 160.776 30.9057 160.776 31.3496C160.776 32.6259 159.777 33.2917 157.779 33.2917C157.058 33.2917 156.17 33.1252 155.282 32.8478C154.339 32.5149 153.507 32.1265 152.73 31.5161L152.564 31.4051V35.8441L152.619 35.8996C153.285 36.177 154.117 36.4545 155.06 36.6765C156.004 36.8984 156.892 36.9539 157.668 36.9539C159.999 36.9539 161.941 36.399 163.273 35.2893C164.66 34.1795 165.381 32.6813 165.381 30.9057C165.381 29.6295 164.993 28.4643 164.271 27.5765C163.55 26.6887 162.218 25.8564 160.443 25.135C159 24.5802 158.112 24.0808 157.724 23.6924C157.335 23.3594 157.169 22.8601 157.169 22.1942C157.169 21.6393 157.391 21.1954 157.89 20.807C158.39 20.4186 159 20.2521 159.832 20.2521C160.609 20.2521 161.386 20.3631 162.163 20.5851C162.94 20.807 163.606 21.1399 164.216 21.5283L164.382 21.6393V17.4223L164.327 17.3668C163.772 17.1448 163.106 16.9229 162.274 16.8119C161.386 16.7564 160.609 16.6454 159.943 16.6454ZM140.523 33.1252C138.858 33.1252 137.526 32.5704 136.583 31.4606C135.64 30.3509 135.196 28.7972 135.196 26.7997C135.196 24.7466 135.695 23.1375 136.583 22.0277C137.526 20.918 138.803 20.3631 140.467 20.3631C142.076 20.3631 143.353 20.918 144.24 21.9722C145.128 23.0265 145.628 24.6357 145.628 26.6887C145.628 28.7972 145.184 30.4063 144.351 31.4606C143.519 32.6258 142.243 33.1252 140.523 33.1252ZM140.745 16.6454C137.582 16.6454 135.029 17.5887 133.198 19.4198C131.367 21.2509 130.479 23.8033 130.479 27.0216C130.479 30.0734 131.367 32.4594 133.143 34.235C134.918 36.0106 137.304 36.8984 140.245 36.8984C143.353 36.8984 145.794 35.9551 147.625 34.0685C149.456 32.182 150.344 29.685 150.344 26.5777C150.344 23.5259 149.512 21.029 147.792 19.3088C146.127 17.5332 143.741 16.6454 140.745 16.6454ZM123.488 20.4741V17.1448H118.938V36.4545H123.488V26.5777C123.488 24.9131 123.876 23.5259 124.598 22.4716C125.319 21.4174 126.318 20.918 127.539 20.918C127.927 20.918 128.426 20.9735 128.926 21.1399C129.425 21.2509 129.758 21.4174 129.98 21.5838L130.147 21.6948V17.0893L130.091 17.0339C129.647 16.8674 129.092 16.7564 128.315 16.7564C127.15 16.7564 126.151 17.1448 125.264 17.8662C124.542 18.532 123.987 19.3643 123.488 20.4741ZM110.837 16.6454C108.728 16.6454 106.897 17.0893 105.288 17.9771C103.679 18.8649 102.458 20.1412 101.626 21.7503C100.794 23.3594 100.35 25.246 100.35 27.299C100.35 29.1301 100.738 30.7948 101.57 32.2929C102.403 33.7911 103.513 34.9563 104.955 35.7332C106.398 36.51 108.063 36.9539 109.949 36.9539C112.113 36.9539 113.944 36.51 115.442 35.6777L115.498 35.6222V31.4606L115.331 31.6271C114.666 32.1265 113.889 32.5149 113.112 32.7923C112.335 33.0698 111.558 33.2362 110.948 33.2362C109.172 33.2362 107.73 32.6813 106.675 31.5716C105.621 30.4618 105.122 28.9082 105.122 26.9661C105.122 25.0241 105.677 23.4149 106.786 22.2497C107.896 21.0844 109.283 20.4741 111.059 20.4741C112.557 20.4741 114 20.9735 115.387 21.9722L115.553 22.0832V17.6997L115.498 17.6442C114.998 17.3668 114.277 17.0893 113.389 16.9229C112.502 16.7564 111.614 16.6454 110.837 16.6454ZM97.2424 17.1448H92.6925V36.4545H97.2424V17.1448ZM95.0229 8.87719C94.3016 8.87719 93.6357 9.15462 93.0809 9.65401C92.526 10.1534 92.2486 10.8192 92.2486 11.5406C92.2486 12.2619 92.526 12.9278 93.0254 13.4272C93.5803 13.9266 94.1906 14.1485 94.9674 14.1485C95.7443 14.1485 96.4101 13.9266 96.9095 13.4272C97.4644 12.9278 97.7418 12.3174 97.7418 11.5406C97.7418 10.8192 97.4644 10.2089 96.965 9.65401C96.4656 9.15462 95.7998 8.87719 95.0229 8.87719ZM83.7035 15.7021V36.4545H88.3644V9.48755H81.9279L73.7712 29.5185L65.8365 9.48755H59.178V36.4545H63.5615V15.7021H63.728L72.1066 36.4545H75.3803L83.5925 15.7021H83.7035Z" fill="#706D6E"/>
<path d="M22.0022 21.8625H0.639465V0.499817H22.0022V21.8625Z" fill="#F1511B"/>
<path d="M45.6388 21.8625H24.2761V0.499817H45.6388V21.8625Z" fill="#80CC28"/>
<path d="M22.0022 45.5002H0.639465V24.082H22.0022V45.5002Z" fill="#00ADEF"/>
<path d="M45.6388 45.5002H24.2761V24.082H45.6388V45.5002Z" fill="#FBBC09"/>
</svg>
