<svg width="126" height="160" viewBox="0 0 126 160" fill="none" xmlns="http://www.w3.org/2000/svg">
<path d="M23.8501 82.6966C26.6687 87.4704 30.6015 91.4749 33.8861 95.9412C39.4269 103.475 43.1015 112.369 44.4963 121.616C45.4466 127.912 45.844 135.272 51.0463 138.943C53.671 140.796 57.0167 141.251 60.2263 141.435C63.7616 141.639 67.6718 141.449 70.2815 139.054C73.639 135.973 73.4129 130.753 73.6925 126.205C74.3985 114.732 79.8451 104.185 83.7971 93.3893C89.0036 79.1667 91.7023 64.0292 91.7323 48.8831C91.744 42.7606 91.1087 36.1056 86.9553 31.6072C83.4864 27.8502 78.2306 26.361 73.1858 25.5244C59.0339 23.1771 39.2962 25.3337 32.2213 39.6774C26.4255 51.4296 16.8267 70.7998 23.8501 82.6966Z" fill="#FFE7FB"/>
<path d="M16.0847 170.001C19.5783 157.864 28.8547 146.526 41.3118 144.447C44.1133 143.98 47.084 144.009 49.6765 145.168C51.4238 145.949 52.9097 147.2 54.5135 148.245C58.4205 150.79 63.1118 152.112 67.7741 151.981C74.1516 151.804 80.423 148.996 86.7287 149.974C94.8727 151.238 100.757 158.448 104.505 165.788C111.197 178.901 113.647 194.137 111.403 208.687C111.142 210.358 40.9251 208.351 34.3408 208.312C25.8197 208.262 18.2627 209.003 14.8645 200.012C11.6195 191.427 13.6572 178.438 16.0847 170.001Z" fill="#C3C62B"/>
<path d="M97.8593 68.9242C95.0065 74.7746 93.9405 81.4831 94.8393 87.9313C99.1235 89.2426 103.577 86.6575 107.084 83.8678C109.383 82.038 111.628 79.9961 112.91 77.3521C114.195 74.7082 114.33 71.3271 112.559 68.982C110.931 66.8266 108.025 65.9567 105.327 66.112C102.631 66.2674 100.072 67.2947 97.5679 68.3082" fill="#FFE7FB"/>
<path d="M63.9909 87.7515C64.3305 87.8318 63.1606 92.1824 58.2476 92.0999C53.3346 92.0185 49.7318 93.9833 49.8143 102.582L47.6599 101.27C47.6599 101.27 43.1219 82.831 63.9909 87.7515Z" fill="black"/>
<path d="M64.1006 87.7515C63.7599 87.8318 64.9298 92.1824 69.8428 92.0999C74.7558 92.0185 78.3586 93.9833 78.2772 102.582L80.4316 101.27C80.4316 101.27 84.9685 82.831 64.1006 87.7515Z" fill="black"/>
<path d="M30.0682 51.7737C30.0682 51.7737 29.8753 63.9748 32.35 77.8492C34.5783 90.3406 38.96 104.182 47.584 111.681C51.5799 115.151 56.4758 117.262 62.4858 117.272C67.2638 117.272 71.3883 116.352 74.9451 114.713C75.7486 114.347 76.5199 113.941 77.2591 113.501C77.5055 113.363 77.7519 113.212 77.9876 113.051C78.4804 112.752 78.9518 112.43 79.4124 112.088C79.6053 111.949 79.7874 111.81 79.9802 111.669C80.248 111.456 80.5159 111.252 80.773 111.028C81.2015 110.674 81.6193 110.309 82.0264 109.924C82.4764 109.505 82.9263 109.067 83.3548 108.606C83.6976 108.242 84.0405 107.855 84.3726 107.471C84.4047 107.439 84.4368 107.396 84.469 107.363C84.7689 107.01 85.0582 106.645 85.3367 106.282C85.3796 106.239 85.4224 106.185 85.4546 106.142C91.2825 98.5575 94.2178 88.1873 95.6319 78.5231C95.6427 78.492 95.6427 78.4802 95.6427 78.4802C97.7103 64.3497 96.5533 51.7737 96.5533 51.7737" stroke="black" stroke-miterlimit="10"/>
<path d="M51.1084 114.08L51.0977 114.22L49.9407 126.411L48.9765 136.598L33.8497 146.081L28.0325 149.734C27.4004 150.13 26.7791 150.537 26.1684 150.966C15.8304 158.111 8.56692 168.931 5.88866 181.261L0.5 206.041" stroke="black" stroke-miterlimit="10"/>
<path d="M74.9453 114.713L75.2667 118.109L77.0236 136.598L93.961 147.226L97.9676 149.734C99.2318 150.525 100.464 151.372 101.642 152.283C111.016 159.397 117.594 169.66 120.111 181.261L125.5 206.041" stroke="black" stroke-miterlimit="10"/>
<path d="M31.0963 70.7811C31.0963 70.7811 23.5619 60.1817 19.147 64.6715C14.7333 69.1613 21.6871 92.4322 34.6702 90.4481" stroke="black" stroke-miterlimit="10"/>
<path d="M96.5713 70.4786C96.5713 70.4786 103.746 59.6328 108.308 63.9715C112.871 68.3103 106.702 91.8019 93.6595 90.2549" stroke="black" stroke-miterlimit="10"/>
<path d="M23.943 74.0945C23.943 74.0945 30.0141 74.4544 32.3463 79.4114" stroke="black" stroke-miterlimit="10"/>
<path d="M26.9062 79.1082C26.9062 79.1082 27.2116 77.0438 31.0875 77.5002" stroke="black" stroke-miterlimit="10"/>
<path d="M103.971 73.5535C103.971 73.5535 97.9146 74.1159 95.7506 79.1478" stroke="black" stroke-miterlimit="10"/>
<path d="M101.178 78.6635C101.178 78.6635 100.804 76.6098 96.9443 77.1968" stroke="black" stroke-miterlimit="10"/>
<path d="M95.7513 72.4038C95.7513 72.4038 91.9835 70.7658 91.9835 66.8352C91.9835 62.9046 93.9494 55.8629 91.329 51.7684C88.7096 47.6749 84.9419 43.9082 84.9419 43.9082C84.9419 43.9082 62.1788 38.3407 36.3036 47.0193C36.3036 47.0193 32.4983 50.5075 33.5193 57.276C35.9758 73.5534 31.3424 72.466 31.3424 72.466C31.3424 72.466 23.9429 61.7583 26.2462 51.1963C26.2462 51.1963 12.361 37.9582 22.9573 17.296C34.6709 -5.54958 75.0591 -3.85371 88.8168 11.2838C99.8619 23.4378 95.7513 31.4618 95.7513 31.4618C95.7513 31.4618 111.475 45.5463 95.7513 72.4038Z" fill="black"/>
<path d="M42.6157 41.1227C40.547 38.6126 38.9647 35.7137 37.7317 32.6851C36.4997 29.649 35.7508 26.4094 35.4851 23.1301C35.3052 21.49 35.4251 19.8402 35.4766 18.1957C35.7572 16.5727 35.859 14.9164 36.4086 13.3566C36.6582 12.5735 36.8135 11.7636 37.1392 11.0105L38.0959 8.75001C38.3905 7.98617 38.8469 7.30161 39.2593 6.59991C39.6729 5.8982 40.0982 5.20614 40.5278 4.52051C39.1587 7.46231 37.7981 10.3955 37.2078 13.5548C36.7889 15.0986 36.7011 16.7012 36.4879 18.276C36.4718 19.8691 36.3593 21.461 36.5522 23.0476C36.7846 26.223 37.4767 29.363 38.4998 32.399C39.029 33.9117 39.6182 35.4083 40.3221 36.8567C40.9734 38.333 41.7672 39.7396 42.6157 41.1227Z" fill="white"/>
<path d="M49.9819 0.891357C48.8635 2.72436 48.1575 4.73627 47.549 6.74925C46.9715 8.77723 46.5837 10.8523 46.3352 12.9446L46.1606 14.5162L46.0684 16.0974C45.9624 17.1516 46.017 18.2111 45.9699 19.2717C45.9624 20.3323 46.0192 21.394 46.0224 22.461C46.0609 23.5269 46.1552 24.5907 46.1702 25.6696C45.9142 24.6272 45.717 23.5709 45.4996 22.5135C45.3699 21.4465 45.1996 20.3784 45.1343 19.3006C44.9982 17.1473 45.0046 14.9726 45.2714 12.8171C45.5478 10.667 45.9967 8.52761 46.7573 6.48892C47.5158 4.46201 48.5239 2.48439 49.9819 0.891357Z" fill="white"/>
<path d="M48.6258 13.2811C48.4951 12.1209 48.5412 10.9585 48.6644 9.8058C48.7811 8.65201 49.0125 7.51 49.3339 6.38834C49.6725 5.27205 50.0807 4.16432 50.6934 3.14979C51.2891 2.13955 52.0508 1.17431 53.0524 0.561523C52.3604 1.50106 51.8751 2.49844 51.4412 3.52261C51.0138 4.54785 50.6699 5.61165 50.3624 6.68831C49.7143 8.83842 49.2483 11.0442 48.6258 13.2811Z" fill="white"/>
<path d="M62.5578 13.281C62.4731 15.6068 62.321 17.9058 62.3563 20.2038C62.3938 22.4996 62.5085 24.7868 62.8106 27.0505C63.1148 29.3131 63.6237 31.535 64.2847 33.7193C64.6639 34.7928 65.0239 35.8823 65.5424 36.9043C65.9441 37.9917 66.6041 38.9334 67.1205 39.9843C65.6153 38.2145 64.394 36.1812 63.5091 34C62.6413 31.8146 62.0853 29.5145 61.7478 27.1919C61.4661 24.8618 61.3772 22.5124 61.5357 20.1823C61.6064 19.0168 61.7361 17.8565 61.8957 16.7038C62.0842 15.5532 62.3081 14.4134 62.5578 13.281Z" fill="white"/>
<path d="M57.8463 42.5541C57.8463 42.5541 48.7499 45.4638 51.8202 51.7684C51.8202 51.7684 44.9564 41.1593 57.8463 42.5541Z" fill="black"/>
<path d="M39.2513 60.7553C39.8019 60.0482 40.4147 59.5576 41.0371 59.083L42.9034 59.158C44.145 59.2308 45.3845 59.3723 46.6197 59.5833C47.8571 59.7901 49.0859 60.1061 50.3018 60.4928C50.906 60.7018 51.5113 60.9128 52.1026 61.1828C52.5076 61.8663 52.8451 62.6183 53.054 63.4432C52.2033 63.7368 51.5199 63.8771 50.8149 64.1288C50.3275 63.9028 49.8111 63.7239 49.2948 63.545C48.2492 63.214 47.1747 62.9333 46.0691 62.7501C44.9656 62.5615 43.8451 62.433 42.717 62.3666C42.1524 62.343 41.5878 62.2991 41.0254 62.3291C40.4597 61.8459 39.8855 61.3852 39.2513 60.7553Z" fill="black"/>
<path d="M47.6605 69.998C47.6605 71.7271 46.781 73.1294 45.6947 73.1294C44.6095 73.1294 43.7299 71.7271 43.7299 69.998C43.7299 68.2678 44.6095 66.8655 45.6947 66.8655C46.781 66.8655 47.6605 68.2678 47.6605 69.998Z" fill="black"/>
<path d="M86.1182 59.9571C85.4947 60.5902 84.9516 61.0734 84.4245 61.5758C83.8792 61.5694 83.3328 61.6412 82.7875 61.699C81.698 61.8319 80.6181 62.0547 79.5672 62.3558C78.5141 62.6493 77.4889 63.0296 76.5151 63.5031C76.0201 63.7259 75.5487 63.9906 75.0838 64.2637C74.3585 64.103 73.6568 64.0484 72.7827 63.8459C72.8994 63.006 73.134 62.2272 73.4436 61.4998C73.9953 61.1762 74.5535 60.8656 75.1331 60.602C76.2794 60.046 77.4728 59.6036 78.6898 59.264C79.9047 58.9169 81.142 58.6619 82.3922 58.5098C83.0168 58.4273 83.6456 58.3941 84.2766 58.333C84.928 58.784 85.5655 59.2533 86.1182 59.9571Z" fill="black"/>
<path d="M78.0114 69.998C78.0114 71.7271 78.8909 73.1294 79.9761 73.1294C81.0624 73.1294 81.942 71.7271 81.942 69.998C81.942 68.2678 81.0624 66.8655 79.9761 66.8655C78.8909 66.8655 78.0114 68.2678 78.0114 69.998Z" fill="black"/>
<path d="M60.3271 68.5903C60.4503 69.081 60.6956 76.5105 57.1346 84.8024C57.1346 84.8024 60.8884 87.3071 65.4329 84.5238" stroke="black" stroke-miterlimit="10"/>
<path d="M55.7319 94.7144C55.7319 94.7144 63.9991 96.4938 72.7838 95.1922" stroke="black" stroke-miterlimit="10"/>
<path d="M60.4294 98.4718C60.4294 98.4718 65.0992 99.2496 67.5525 97.9404" stroke="black" stroke-miterlimit="10"/>
<path d="M95.6324 78.5235C94.2183 88.1877 91.2829 98.5579 85.455 106.143C82.6589 109.764 79.2093 112.753 74.9455 114.713C71.3888 116.352 67.2643 117.273 62.4862 117.273C56.4762 117.263 51.5804 115.151 47.5844 111.681C38.9604 104.182 34.5788 90.341 32.3505 77.8496C32.3505 77.8496 38.0605 91.4873 42.1208 96.1475C46.1703 100.818 50.177 104.417 64.4468 104.664C78.7165 104.417 82.7339 100.818 86.7834 96.1475C90.7044 91.6373 95.3431 79.2841 95.6324 78.5235Z" fill="black"/>
<path d="M48.9734 136.599L65.433 154.123L77.0266 136.599" stroke="black" stroke-miterlimit="10"/>
<path d="M42.7391 140.51L50.3871 156.251L60.8891 149.284" stroke="black" stroke-miterlimit="10"/>
<path d="M69.8002 147.522L78.7188 156.251L86.3454 142.443" stroke="black" stroke-miterlimit="10"/>
<path d="M65.4332 154.123H69.7998C69.7998 154.123 70.6943 162.147 66.272 163.621L65.4332 206.036" stroke="black" stroke-miterlimit="10"/>
<path d="M37.4384 206.042H28.9216L26.1683 150.966C26.7789 150.537 27.4003 150.13 28.0324 149.734L33.8496 146.081L37.4384 206.042Z" fill="black"/>
<path d="M101.642 152.283L98.9634 206.041H90.4466L93.9604 147.227L97.9671 149.734C99.2312 150.525 100.463 151.372 101.642 152.283Z" fill="black"/>
<path d="M75.2669 118.109C66.3965 121.076 54.6657 124.89 49.9412 126.411L51.0982 114.22C54.3657 116.159 58.1367 117.262 62.4862 117.272C67.2642 117.272 71.3887 116.352 74.9455 114.713L75.2669 118.109Z" fill="black"/>
</svg>
