<svg width="120" height="160" viewBox="0 0 120 160" fill="none" xmlns="http://www.w3.org/2000/svg">
<path d="M45.3 106.179C45.99 109.765 46.7689 113.527 49.1529 116.292C52.8769 120.612 59.2449 121.192 64.9409 121.461C68.1679 121.613 71.928 121.533 73.903 118.978C75.362 117.093 75.308 114.5 75.548 112.128C76.313 104.576 80.596 97.9249 83.72 91.0079C91.726 73.2829 92.1579 52.2839 84.8909 34.2439C83.8789 31.7339 82.6719 29.2049 80.6449 27.4109C78.3649 25.3949 75.3 24.5289 72.302 24.0069C58.692 21.6339 32.4409 25.0269 33.3029 43.2649C34.2739 63.8159 41.408 85.9549 45.3 106.179Z" fill="#FFE7FB"/>
<path d="M104.764 185.626C107.27 185.696 109.975 185.709 112.016 184.255C115.473 181.793 115.229 176.667 114.553 172.477C112.198 157.881 108.188 142.078 96.2433 133.366C87.0353 126.651 74.9093 125.591 63.5213 125.992C54.3933 126.314 45.3073 127.419 36.2853 128.842C30.3983 129.77 24.2563 130.956 19.6183 134.7C13.1973 139.883 11.1653 148.644 9.52726 156.732C8.23726 163.097 2.10726 177.285 8.12926 182.036C13.6923 186.425 31.8633 183.575 38.8333 183.771C60.8103 184.389 82.7873 184.998 104.764 185.626Z" fill="#6987FF"/>
<path d="M48.5912 173.839C49.5772 178.148 51.0382 182.564 54.2112 185.643C57.3832 188.721 62.6992 189.979 66.2952 187.408C70.6262 184.312 70.3682 177.969 70.3772 172.646C70.3862 166.815 71.2612 160.987 72.9622 155.41C75.4502 147.256 79.7152 139.537 80.5032 131.049C80.7692 128.191 80.4402 124.905 78.1792 123.138C76.8052 122.064 74.9892 121.783 73.2572 121.576C63.6882 120.433 47.0032 117.564 43.9542 130.033C42.4962 135.993 45.0142 144.217 45.5602 150.265C46.2722 158.162 46.8182 166.088 48.5912 173.839Z" fill="#DBC9FF"/>
<path d="M45.1171 74.6279C42.6871 74.6519 40.2551 74.6759 37.8251 74.6999C37.1261 74.7059 36.3331 74.7549 35.8851 75.2919C35.3341 75.9519 35.6611 77.0259 36.3351 77.5599C37.0101 78.0929 37.9061 78.2289 38.7581 78.3459C39.8541 78.4969 40.9501 78.6479 42.0451 78.7989C43.5891 79.0119 45.3421 79.1679 46.5321 78.1619C47.7231 77.1559 47.2751 74.6059 45.7211 74.7239" fill="#F03FA3"/>
<path d="M79.2992 75.8477C76.8682 75.8717 74.4382 75.8947 72.0072 75.9187C71.3082 75.9257 70.5162 75.9747 70.0672 76.5117C69.5172 77.1717 69.8432 78.2457 70.5182 78.7797C71.1912 79.3127 72.0882 79.4487 72.9392 79.5657C74.0352 79.7167 75.1322 79.8677 76.2282 80.0187C77.7712 80.2307 79.5232 80.3877 80.7142 79.3817C81.9042 78.3757 81.4573 75.8257 79.9033 75.9447" fill="#F03FA3"/>
<path d="M40.8857 57.9367C41.5647 57.1217 42.4297 56.5527 43.3317 56.0887C44.2407 55.6347 45.2147 55.3207 46.2167 55.1377C48.2057 54.7787 50.3797 54.9277 52.1867 56.0067C51.1617 56.2947 50.2297 56.4097 49.3047 56.6087L46.5737 57.1047C44.7467 57.4157 42.9577 57.7827 40.8857 57.9367Z" fill="black"/>
<path d="M48.2979 65.5768C48.2979 67.1918 47.4769 68.4998 46.4629 68.4998C45.4499 68.4998 44.6289 67.1918 44.6289 65.5768C44.6289 63.9618 45.4499 62.6528 46.4629 62.6528C47.4769 62.6528 48.2979 63.9618 48.2979 65.5768Z" fill="black"/>
<path d="M80.9543 58.2486C78.8933 57.9776 77.1283 57.5106 75.3223 57.0976L72.6233 56.4486C71.7103 56.1986 70.7863 56.0306 69.7793 55.6846C71.6453 54.7106 73.8233 54.6836 75.7893 55.1536C76.7783 55.3926 77.7333 55.7616 78.6153 56.2656C79.4893 56.7806 80.3213 57.3966 80.9543 58.2486Z" fill="black"/>
<path d="M73.6289 65.5768C73.6289 67.1918 74.4499 68.4998 75.4639 68.4998C76.4769 68.4998 77.2979 67.1918 77.2979 65.5768C77.2979 63.9618 76.4769 62.6528 75.4639 62.6528C74.4499 62.6528 73.6289 63.9618 73.6289 65.5768Z" fill="black"/>
<path d="M58.6589 63.9209C58.7729 64.1719 57.9599 70.6659 55.8999 74.1379C55.8999 74.1379 55.4479 76.5279 60.0509 77.8269" stroke="black" stroke-miterlimit="10"/>
<path d="M54.0693 84.4517C54.0693 84.4517 62.1563 87.1327 68.4243 84.5897" stroke="black" stroke-miterlimit="10"/>
<path d="M47.86 100.92L46.72 112.96L46.25 117.89L43.29 119.75L26.7 130.15C16.13 136.78 8.68 147.38 6.03 159.57L1 182.7" stroke="black" stroke-miterlimit="10"/>
<path d="M71.9502 100.04L72.3702 104.5L73.1902 113.09L73.6402 117.89L93.1902 130.15C103.76 136.78 111.21 147.38 113.86 159.57L118.89 182.7" stroke="black" stroke-miterlimit="10"/>
<path d="M91.6805 46.3696C91.7305 48.2596 91.7405 50.0896 91.7105 51.8596C91.7105 51.8996 91.7205 51.9296 91.7205 51.9496C91.7205 51.9596 91.7205 51.9796 91.7105 51.9896C91.3805 74.2996 85.4405 87.0696 78.7605 94.3696C76.5105 96.8296 74.1805 98.6596 71.9505 100.04C71.2105 100.5 70.4805 100.9 69.7705 101.26C64.0805 104.15 59.5205 104.15 59.5205 104.15C58.3705 104.15 57.2605 104.07 56.2005 103.92C53.0905 103.49 50.3305 102.44 47.8605 100.92C46.2505 99.9296 44.7705 98.7396 43.4205 97.3896C34.3605 88.4096 30.5005 72.3296 28.7805 60.6096L28.7705 60.5996C28.7005 60.1196 28.6305 59.6396 28.5705 59.1796C27.5705 51.9196 27.3905 46.6496 27.2305 46.3696" stroke="black" stroke-miterlimit="10"/>
<path d="M101.969 20.6968C107.778 40.7188 115.343 120.45 75.4017 118.998L71.9457 100.04C80.8147 94.5598 91.2657 81.7898 91.7057 51.9898C91.7157 51.9798 91.7157 51.9798 91.7157 51.9798C91.7157 51.9798 91.7157 51.9698 91.7157 51.9498C91.7157 51.9298 91.7057 51.8998 91.7057 51.8598C91.6557 50.9598 90.8957 44.9698 80.6047 30.4698C80.6047 30.4698 67.3357 46.3698 47.8557 46.3698C29.5657 46.3698 28.3457 55.5798 28.5657 59.1798C28.6257 60.0598 28.7657 60.5998 28.7657 60.5998L28.7757 60.6098C30.7557 74.0898 35.5657 93.3498 47.8557 100.92L46.2457 117.89L19.6177 134.7C17.2527 114.542 13.6547 88.1318 13.8147 55.4218C13.8147 55.4218 12.5947 -5.31116 69.7357 0.375844C69.7357 0.375844 83.3297 2.73084 85.2427 9.11884C85.2427 9.11884 99.0777 10.7378 101.969 20.6968Z" fill="black"/>
<path d="M46.2461 117.89C46.2461 117.89 59.7881 126.66 73.6361 117.89" stroke="black" stroke-miterlimit="10"/>
<path d="M44.4834 118.998C44.4834 118.998 59.9584 132.621 75.4024 118.998" stroke="black" stroke-miterlimit="10"/>
<path d="M52.856 182.7C52.856 182.7 52.746 182.19 52.546 181.25C52.316 180.18 51.976 178.56 51.546 176.53C51.226 175.03 50.856 173.29 50.456 171.39C50.136 169.91 49.806 168.33 49.446 166.67C49.096 165.02 48.736 163.3 48.356 161.53C48.036 159.99 47.696 158.41 47.356 156.81C46.996 155.1 46.636 153.38 46.266 151.67C45.936 150.09 45.596 148.51 45.266 146.95C44.896 145.2 44.536 143.48 44.186 141.81C43.836 140.19 43.506 138.6 43.186 137.09C41.346 128.33 39.996 121.82 40.036 121.79" stroke="black" stroke-miterlimit="10"/>
<path d="M30.8772 127.529C30.5612 127.727 29.2422 141.37 29.2422 141.37L41.7772 154.737L38.2612 162.853L51.2952 175.346" stroke="black" stroke-miterlimit="10"/>
<path d="M66.3262 182.7C66.3262 182.7 66.4362 182.19 66.6362 181.25C66.8662 180.18 67.2062 178.56 67.6362 176.53C67.9562 175.03 68.3262 173.29 68.7262 171.39C69.0462 169.91 69.3862 168.33 69.7362 166.67C70.0862 165.02 70.4562 163.3 70.8262 161.53C71.1562 159.99 71.4862 158.41 71.8262 156.81C72.1862 155.1 72.5462 153.38 72.9162 151.67C73.2462 150.09 73.5862 148.51 73.9062 146.95C74.2762 145.2 74.6462 143.48 74.9962 141.81C75.3362 140.19 75.6762 138.6 75.9862 137.09C77.8362 128.33 79.1862 121.82 79.1462 121.79" stroke="black" stroke-miterlimit="10"/>
<path d="M88.3047 127.529C88.6207 127.727 89.9397 141.37 89.9397 141.37L77.4047 154.737L80.9207 162.853L67.8867 175.346" stroke="black" stroke-miterlimit="10"/>
<path d="M75.9855 137.09C75.6755 138.6 75.3355 140.19 74.9955 141.81H44.1855C43.8355 140.19 43.5055 138.6 43.1855 137.09H75.9855Z" fill="black"/>
<path d="M73.9056 146.95C73.5856 148.51 73.2456 150.09 72.9156 151.67H46.2656C45.9356 150.09 45.5956 148.51 45.2656 146.95H73.9056Z" fill="black"/>
<path d="M71.8264 156.81C71.4864 158.41 71.1564 159.99 70.8264 161.53H48.3564C48.0364 159.99 47.6964 158.41 47.3564 156.81H71.8264Z" fill="black"/>
<path d="M55.0694 24.3787C55.0694 30.7947 48.7354 35.9967 40.9214 35.9967C33.1074 35.9967 26.7734 30.7947 26.7734 24.3787C26.7734 17.9627 33.1074 12.7607 40.9214 12.7607C48.7354 12.7607 55.0694 17.9627 55.0694 24.3787Z" stroke="white" stroke-width="2" stroke-miterlimit="10"/>
<path d="M92.1759 24.3787C92.1759 30.7947 85.8409 35.9967 78.0269 35.9967C70.2139 35.9967 63.8789 30.7947 63.8789 24.3787C63.8789 17.9627 70.2139 12.7607 78.0269 12.7607C85.8409 12.7607 92.1759 17.9627 92.1759 24.3787Z" stroke="white" stroke-width="2" stroke-miterlimit="10"/>
<path d="M55.0693 24.3788C55.0693 24.3788 59.1663 20.7238 63.8793 24.3788" stroke="white" stroke-width="2" stroke-miterlimit="10"/>
<path d="M72.3697 104.5C64.5197 107.16 52.3397 111.13 46.7197 112.96L47.8597 100.92C50.3297 102.44 53.0897 103.49 56.1997 103.92C57.2597 104.07 58.3697 104.15 59.5197 104.15C59.5197 104.15 64.0797 104.15 69.7697 101.26C70.4797 100.9 71.2097 100.5 71.9497 100.04L72.3697 104.5Z" fill="black"/>
</svg>
