<svg width="123" height="158" viewBox="0 0 123 158" fill="none" xmlns="http://www.w3.org/2000/svg">
<path d="M36.676 84.5623C38.825 88.5413 41.908 91.9504 44.108 95.9014C47.532 102.044 48.667 109.24 48.604 116.273C48.587 118.196 48.503 120.209 49.339 121.942C51.132 125.658 56.044 126.328 60.167 126.507C66.735 126.792 75.221 125.748 76.846 119.378C77.511 116.769 76.686 114.042 76.515 111.356C75.991 103.082 81.658 95.7374 87.717 90.0803C93.777 84.4223 100.753 79.2723 104.297 71.7773C105.215 69.8353 105.863 67.4964 104.864 65.5954C102.702 61.4784 95.309 63.1504 93.024 59.0994C92.339 57.8844 92.313 56.4263 92.154 55.0403C90.729 42.6563 77.233 34.4474 64.774 34.8444C55.253 35.1484 37.779 40.1473 33.496 49.8083C29.554 58.6993 32.326 76.5033 36.676 84.5623Z" fill="#FFE7FB"/>
<path d="M2.8514 179.225C2.7284 183.123 3.40038 187.653 6.74538 189.658C8.42638 190.666 10.4694 190.813 12.4264 190.928C47.9564 193.011 83.6144 192.903 119.13 190.608C120.105 190.544 121.143 190.456 121.915 189.859C123.517 188.616 123.033 186.117 122.371 184.202C118.944 174.299 114.867 164.621 110.173 155.252C107.414 149.739 103.934 143.888 98.1054 141.882C89.9954 139.09 81.7044 144.909 73.3294 146.762C56.6654 150.448 42.5314 132.583 27.3914 137.398C12.1244 142.252 3.3054 164.828 2.8514 179.225Z" fill="#C3C62B"/>
<path d="M42.0424 129.823C41.7314 130.323 41.4294 130.873 41.4624 131.46C41.5034 132.17 42.0174 132.752 42.5204 133.255C52.9154 143.656 70.8585 145.36 83.0245 137.1C84.5475 136.066 86.0304 134.838 86.8074 133.169C88.3384 129.881 86.5334 125.751 83.5134 123.742C80.4944 121.733 76.6284 121.458 73.0245 121.858C69.4195 122.257 65.8984 123.26 62.2844 123.57C53.2534 124.347 47.3854 121.231 42.0424 129.823Z" fill="#6987FF"/>
<path d="M46.2707 78.6216C43.8387 78.6456 41.4087 78.6696 38.9777 78.6936C38.2787 78.6996 37.4867 78.7486 37.0387 79.2856C36.4877 79.9456 36.8137 81.0206 37.4887 81.5536C38.1627 82.0866 39.0587 82.2226 39.9117 82.3396C41.0067 82.4906 42.1027 82.6416 43.1987 82.7926C44.7427 83.0056 46.4947 83.1616 47.6847 82.1556C48.8757 81.1506 48.4287 78.6006 46.8747 78.7186" fill="#F03FA3"/>
<path d="M80.4521 79.8413C78.0211 79.8653 75.5901 79.8893 73.1591 79.9123C72.4611 79.9193 71.6681 79.9693 71.2201 80.5053C70.6691 81.1653 70.9961 82.2393 71.6691 82.7733C72.3441 83.3073 73.2411 83.4433 74.0921 83.5603C75.1881 83.7103 76.2841 83.8613 77.3791 84.0123C78.9241 84.2253 80.6761 84.3823 81.8671 83.3753C83.0571 82.3693 82.6101 79.8193 81.0551 79.9383" fill="#F03FA3"/>
<path d="M39.3965 59.9634C40.2095 59.2814 41.1615 58.8744 42.1295 58.5764C43.1045 58.2894 44.1205 58.1524 45.1375 58.1494C47.1595 58.1474 49.2725 58.6774 50.8615 60.0584C49.8005 60.1604 48.8645 60.1104 47.9185 60.1424L45.1415 60.1494C43.2895 60.1314 41.4635 60.1774 39.3965 59.9634Z" fill="black"/>
<path d="M46.9669 69.8854C46.9669 71.5004 46.1458 72.8094 45.1328 72.8094C44.1198 72.8094 43.2979 71.5004 43.2979 69.8854C43.2979 68.2714 44.1198 66.9624 45.1328 66.9624C46.1458 66.9624 46.9669 68.2714 46.9669 69.8854Z" fill="black"/>
<path d="M79.42 59.8221C77.356 60.0621 75.531 60.0371 73.678 60.0761L70.903 60.1041C69.956 60.0821 69.019 60.1451 67.959 60.0551C69.53 58.6551 71.637 58.0991 73.658 58.0771C74.676 58.0681 75.692 58.1931 76.67 58.4681C77.643 58.7541 78.6 59.1501 79.42 59.8221Z" fill="black"/>
<path d="M72.2979 69.8854C72.2979 71.5004 73.1198 72.8094 74.1328 72.8094C75.1458 72.8094 75.9669 71.5004 75.9669 69.8854C75.9669 68.2714 75.1458 66.9624 74.1328 66.9624C73.1198 66.9624 72.2979 68.2714 72.2979 69.8854Z" fill="black"/>
<path d="M56.0473 68.2295C56.1633 68.4815 55.7333 75.1835 54.5693 78.4475C54.5693 78.4475 54.5693 83.1165 59.9433 82.1365" stroke="black" stroke-miterlimit="10"/>
<path d="M52.7656 89.1043C52.7656 89.1043 60.7636 89.6433 67.1216 88.5493" stroke="black" stroke-miterlimit="10"/>
<path d="M1 187.009L6.03 163.879C8.68 151.689 16.13 141.089 26.7 134.458L46.25 122.198L46.83 116.019H46.84L48.15 102.099L48.18 101.799" stroke="black" stroke-miterlimit="10"/>
<path d="M118.89 187.009L113.86 163.879C111.21 151.689 103.76 141.089 93.1902 134.458L73.6403 122.198L72.2502 107.589L71.7603 102.328L71.7402 102.158" stroke="black" stroke-miterlimit="10"/>
<path d="M27.2305 50.6792C27.6705 51.4292 26.6705 80.9582 44.3105 98.6792C48.3305 102.708 53.3204 106.139 59.5204 108.458C59.5204 108.458 65.1805 107.599 71.7605 102.328C73.0605 101.299 74.3905 100.089 75.7205 98.6792C83.2805 90.6982 90.8205 76.3492 91.6705 50.6792" stroke="black" stroke-miterlimit="10"/>
<path d="M28.5942 66.8503C28.5942 66.8503 21.1882 59.0093 18.0782 63.2033C14.9662 67.3993 23.3522 85.7153 33.7902 82.5943" stroke="black" stroke-miterlimit="10"/>
<path d="M23.0996 70.3942C23.0996 70.3942 28.1286 69.9912 30.6126 73.7952" stroke="black" stroke-miterlimit="10"/>
<path d="M26.1084 74.1721C26.1084 74.1721 26.1224 72.4411 29.3594 72.3701" stroke="black" stroke-miterlimit="10"/>
<path d="M90.0377 66.8503C90.0377 66.8503 96.9137 58.5394 100.294 62.5224C103.672 66.5044 96.5057 85.3314 85.8857 82.9014" stroke="black" stroke-miterlimit="10"/>
<path d="M95.94 70.0294C95.94 70.0294 90.896 69.9574 88.667 73.9164" stroke="black" stroke-miterlimit="10"/>
<path d="M93.1842 73.9961C93.1842 73.9961 93.0572 72.2701 89.8232 72.4121" stroke="black" stroke-miterlimit="10"/>
<path d="M46.2471 122.195C46.2471 122.195 59.7011 131.804 73.6391 122.195" stroke="black" stroke-miterlimit="10"/>
<path d="M59.4504 126.466L52.8764 134.753C52.8764 134.753 45.4304 132.929 41.8154 124.975" stroke="black" stroke-miterlimit="10"/>
<path d="M60.7363 126.466L67.3093 134.753C67.3093 134.753 74.7553 132.929 78.3703 124.975" stroke="black" stroke-miterlimit="10"/>
<path d="M37.0791 127.945C37.0791 127.945 46.5261 140.868 59.9431 143.467C59.9431 143.467 74.0621 141.579 82.0431 127.466" stroke="black" stroke-miterlimit="10"/>
<path d="M34.165 129.864C34.165 129.864 46.526 144.766 59.943 147.364C59.943 147.364 76.931 143.378 84.912 129.265" stroke="black" stroke-miterlimit="10"/>
<path d="M59.9434 147.364V187.011" stroke="black" stroke-miterlimit="10"/>
<path d="M78.3708 40.7405C78.3708 40.7405 56.1008 53.0945 41.8158 54.0405C27.5318 54.9865 29.2588 67.9965 29.2588 67.9965C29.2588 67.9965 18.0998 53.5815 19.4748 33.1745C20.8508 12.7675 62.0968 -2.82552 82.6328 13.9135C82.6328 13.9135 110.982 26.6725 90.3288 65.2765C90.3288 65.2765 82.6928 58.6265 78.3708 40.7405Z" fill="black"/>
<path d="M70.9627 12.7264C71.1007 11.1034 71.4227 9.4964 71.9287 7.9494C73.4957 3.1584 78.5017 0.635401 83.3057 0.113401C84.9287 -0.0625993 86.5867 -0.059592 88.1757 0.308408C92.5587 1.32241 95.9377 5.05042 97.5857 9.23642C98.7097 12.0914 99.1497 15.2144 98.8447 18.2684C98.6727 19.9904 98.2577 21.7124 97.3967 23.2144C96.7097 24.4134 95.7527 25.4454 94.6767 26.3144C90.8347 29.4204 84.8687 30.5084 80.0997 29.5184C76.9227 28.8604 74.5757 26.8864 73.1177 24.0274C71.3507 20.5624 70.6327 16.5974 70.9627 12.7264Z" fill="black"/>
<path d="M72.2508 107.589C66.3008 109.658 54.4108 113.559 46.8408 116.019L48.1508 102.099C51.4008 104.649 55.1608 106.828 59.5208 108.458C59.5208 108.458 65.1808 107.599 71.7608 102.328L72.2508 107.589Z" fill="black"/>
</svg>
