<svg width="19" height="19" viewBox="0 0 19 19" fill="none" xmlns="http://www.w3.org/2000/svg">
<path d="M14.4058 3.71362C13.8228 3.71362 13.3502 4.18624 13.3502 4.76874C13.3502 5.35175 13.8228 5.82436 14.4058 5.82436C14.9883 5.82436 15.4609 5.35175 15.4609 4.76874C15.4609 4.18624 14.9883 3.71362 14.4058 3.71362Z" fill="white"/>
<path d="M9.71408 12.3392C8.1482 12.3392 6.87431 11.0654 6.87431 9.49999C6.87431 7.93411 8.1482 6.66025 9.71408 6.66025C11.2795 6.66025 12.5533 7.93411 12.5533 9.49999C12.5533 11.0654 11.2795 12.3392 9.71408 12.3392ZM9.71408 5.06689C7.26962 5.06689 5.28098 7.05553 5.28098 9.49999C5.28098 11.9439 7.26962 13.9326 9.71408 13.9326C12.158 13.9326 14.1467 11.9439 14.1467 9.49999C14.1467 7.05553 12.158 5.06689 9.71408 5.06689Z" fill="white"/>
<path d="M6.04709 2.19357C3.99944 2.19357 2.33384 3.85917 2.33384 5.90682V13.0932C2.33384 15.1408 3.99944 16.8064 6.04709 16.8064H13.2334C15.2811 16.8064 16.9472 15.1408 16.9472 13.0932V5.90682C16.9472 3.85917 15.2811 2.19357 13.2334 2.19357H6.04709ZM13.2334 18.5H6.04709C3.06541 18.5 0.640778 16.0744 0.640778 13.0932V5.90682C0.640778 2.92513 3.06541 0.5 6.04709 0.5H13.2334C16.2146 0.5 18.6403 2.92513 18.6403 5.90682V13.0932C18.6403 16.0744 16.2146 18.5 13.2334 18.5Z" fill="white"/>
</svg>
