<svg width="15" height="19" viewBox="0 0 15 19" fill="none" xmlns="http://www.w3.org/2000/svg">
<path fill-rule="evenodd" clip-rule="evenodd" d="M6.33834 12.2417C6.32308 12.2936 6.30934 12.3368 6.29764 12.3806C5.63627 14.9706 5.56302 15.546 4.88384 16.7497C4.55927 17.321 4.1945 17.8628 3.79056 18.3817C3.74478 18.4402 3.70256 18.5155 3.61149 18.4972C3.51178 18.4758 3.50413 18.3863 3.49294 18.3064C3.38407 17.5194 3.32456 16.7298 3.35051 15.9357C3.38459 14.9004 3.51277 14.5453 4.8472 8.93284C4.86704 8.84737 4.84517 8.77666 4.81668 8.69882C4.49719 7.83752 4.43412 6.96299 4.71291 6.07676C5.31678 4.16236 7.48707 4.01584 7.86659 5.59549C8.1001 6.57227 7.482 7.85023 7.00734 9.7397C6.61408 11.299 8.4491 12.407 10.0181 11.269C11.4639 10.22 12.0256 7.70423 11.9187 5.92159C11.7086 2.36752 7.81166 1.59932 5.33815 2.74399C2.50395 4.05451 1.85936 7.56839 3.13936 9.17398C3.30114 9.37849 3.42631 9.50314 3.37289 9.71071C3.29048 10.0317 3.21773 10.3558 3.1292 10.6758C3.06307 10.9134 2.86361 11.0004 2.62298 10.9022C2.15137 10.7114 1.75813 10.4112 1.43915 10.0154C0.352476 8.66982 0.0416167 6.00706 1.47831 3.75384C3.07067 1.25642 6.0326 0.246569 8.73605 0.553341C11.9656 0.920144 14.0066 3.12707 14.3892 5.63008C14.5632 6.77069 14.438 9.5825 12.8375 11.5702C10.9954 13.8539 8.01006 14.005 6.63289 12.6034C6.52708 12.4961 6.44213 12.3699 6.33834 12.2417Z" fill="white"/>
</svg>
